<?xml version="1.0" encoding="utf-8" standalone="no"?>
<!DOCTYPE svg PUBLIC "-//W3C//DTD SVG 1.1//EN"
  "http://www.w3.org/Graphics/SVG/1.1/DTD/svg11.dtd">
<svg xmlns:xlink="http://www.w3.org/1999/xlink" width="1008pt" height="612pt" viewBox="0 0 1008 612" xmlns="http://www.w3.org/2000/svg" version="1.1">
 <metadata>
  <rdf:RDF xmlns:dc="http://purl.org/dc/elements/1.1/" xmlns:cc="http://creativecommons.org/ns#" xmlns:rdf="http://www.w3.org/1999/02/22-rdf-syntax-ns#">
   <cc:Work>
    <dc:type rdf:resource="http://purl.org/dc/dcmitype/StillImage"/>
    <dc:date>2026-09-12T00:03:57.256483</dc:date>
    <dc:format>image/svg+xml</dc:format>
    <dc:creator>
     <cc:Agent>
      <dc:title>Matplotlib v3.10.8, https://matplotlib.org/</dc:title>
     </cc:Agent>
    </dc:creator>
   </cc:Work>
  </rdf:RDF>
 </metadata>
 <defs>
  <style type="text/css">*{stroke-linejoin: round; stroke-linecap: butt}</style>
 </defs>
 <g id="figure_1">
  <g id="patch_1">
   <path d="M 0 612 
L 1008 612 
L 1008 0 
L 0 0 
z
" style="fill: #ffffff"/>
  </g>
  <g id="axes_1">
   <g id="patch_2">
    <path d="M 85.68 489.6 
L 972.72 489.6 
L 972.72 97.92 
L 85.68 97.92 
z
" style="fill: #ffffff"/>
   </g>
   <g id="matplotlib.axis_1">
    <g id="xtick_1">
     <g id="line2d_1">
      <path d="M 846.833548 489.6 
L 846.833548 97.92 
" clip-path="url(#p9adb69b1a4)" style="fill: none; stroke: #dce3ec; stroke-width: 0.8; stroke-linecap: square"/>
     </g>
     <g id="line2d_2"/>
     <g id="text_1">
      <text style="font-size: 11px; font-family: 'DejaVu Sans'; text-anchor: middle; fill: #5c6b7d" x="846.833548" y="506.958281" transform="rotate(-0 846.833548 506.958281)">5</text>
     </g>
    </g>
    <g id="xtick_2">
     <g id="line2d_3">
      <path d="M 664.299438 489.6 
L 664.299438 97.92 
" clip-path="url(#p9adb69b1a4)" style="fill: none; stroke: #dce3ec; stroke-width: 0.8; stroke-linecap: square"/>
     </g>
     <g id="line2d_4"/>
     <g id="text_2">
      <text style="font-size: 11px; font-family: 'DejaVu Sans'; text-anchor: middle; fill: #5c6b7d" x="664.299438" y="506.958281" transform="rotate(-0 664.299438 506.958281)">10</text>
     </g>
    </g>
    <g id="xtick_3">
     <g id="line2d_5">
      <path d="M 481.765328 489.6 
L 481.765328 97.92 
" clip-path="url(#p9adb69b1a4)" style="fill: none; stroke: #dce3ec; stroke-width: 0.8; stroke-linecap: square"/>
     </g>
     <g id="line2d_6"/>
     <g id="text_3">
      <text style="font-size: 11px; font-family: 'DejaVu Sans'; text-anchor: middle; fill: #5c6b7d" x="481.765328" y="506.958281" transform="rotate(-0 481.765328 506.958281)">20</text>
     </g>
    </g>
    <g id="xtick_4">
     <g id="line2d_7">
      <path d="M 299.231219 489.6 
L 299.231219 97.92 
" clip-path="url(#p9adb69b1a4)" style="fill: none; stroke: #dce3ec; stroke-width: 0.8; stroke-linecap: square"/>
     </g>
     <g id="line2d_8"/>
     <g id="text_4">
      <text style="font-size: 11px; font-family: 'DejaVu Sans'; text-anchor: middle; fill: #5c6b7d" x="299.231219" y="506.958281" transform="rotate(-0 299.231219 506.958281)">40</text>
     </g>
    </g>
    <g id="xtick_5">
     <g id="line2d_9">
      <path d="M 116.697109 489.6 
L 116.697109 97.92 
" clip-path="url(#p9adb69b1a4)" style="fill: none; stroke: #dce3ec; stroke-width: 0.8; stroke-linecap: square"/>
     </g>
     <g id="line2d_10"/>
     <g id="text_5">
      <text style="font-size: 11px; font-family: 'DejaVu Sans'; text-anchor: middle; fill: #5c6b7d" x="116.697109" y="506.958281" transform="rotate(-0 116.697109 506.958281)">80</text>
     </g>
    </g>
    <g id="text_6">
     <text style="font-size: 12px; font-family: 'DejaVu Sans'; text-anchor: middle; fill: #182438" x="529.2" y="535.416562" transform="rotate(-0 529.2 535.416562)">Selected build + QA path: LLM tokens (millions)   |   Fewer tokens →</text>
    </g>
   </g>
   <g id="matplotlib.axis_2">
    <g id="ytick_1">
     <g id="line2d_11">
      <path d="M 85.68 446.08 
L 972.72 446.08 
" clip-path="url(#p9adb69b1a4)" style="fill: none; stroke: #dce3ec; stroke-width: 0.8; stroke-linecap: square"/>
     </g>
     <g id="line2d_12"/>
     <g id="text_7">
      <text style="font-size: 11px; font-family: 'DejaVu Sans'; text-anchor: end; fill: #5c6b7d" x="76.68" y="450.259141" transform="rotate(-0 76.68 450.259141)">30</text>
     </g>
    </g>
    <g id="ytick_2">
     <g id="line2d_13">
      <path d="M 85.68 391.68 
L 972.72 391.68 
" clip-path="url(#p9adb69b1a4)" style="fill: none; stroke: #dce3ec; stroke-width: 0.8; stroke-linecap: square"/>
     </g>
     <g id="line2d_14"/>
     <g id="text_8">
      <text style="font-size: 11px; font-family: 'DejaVu Sans'; text-anchor: end; fill: #5c6b7d" x="76.68" y="395.859141" transform="rotate(-0 76.68 395.859141)">35</text>
     </g>
    </g>
    <g id="ytick_3">
     <g id="line2d_15">
      <path d="M 85.68 337.28 
L 972.72 337.28 
" clip-path="url(#p9adb69b1a4)" style="fill: none; stroke: #dce3ec; stroke-width: 0.8; stroke-linecap: square"/>
     </g>
     <g id="line2d_16"/>
     <g id="text_9">
      <text style="font-size: 11px; font-family: 'DejaVu Sans'; text-anchor: end; fill: #5c6b7d" x="76.68" y="341.459141" transform="rotate(-0 76.68 341.459141)">40</text>
     </g>
    </g>
    <g id="ytick_4">
     <g id="line2d_17">
      <path d="M 85.68 282.88 
L 972.72 282.88 
" clip-path="url(#p9adb69b1a4)" style="fill: none; stroke: #dce3ec; stroke-width: 0.8; stroke-linecap: square"/>
     </g>
     <g id="line2d_18"/>
     <g id="text_10">
      <text style="font-size: 11px; font-family: 'DejaVu Sans'; text-anchor: end; fill: #5c6b7d" x="76.68" y="287.059141" transform="rotate(-0 76.68 287.059141)">45</text>
     </g>
    </g>
    <g id="ytick_5">
     <g id="line2d_19">
      <path d="M 85.68 228.48 
L 972.72 228.48 
" clip-path="url(#p9adb69b1a4)" style="fill: none; stroke: #dce3ec; stroke-width: 0.8; stroke-linecap: square"/>
     </g>
     <g id="line2d_20"/>
     <g id="text_11">
      <text style="font-size: 11px; font-family: 'DejaVu Sans'; text-anchor: end; fill: #5c6b7d" x="76.68" y="232.659141" transform="rotate(-0 76.68 232.659141)">50</text>
     </g>
    </g>
    <g id="ytick_6">
     <g id="line2d_21">
      <path d="M 85.68 174.08 
L 972.72 174.08 
" clip-path="url(#p9adb69b1a4)" style="fill: none; stroke: #dce3ec; stroke-width: 0.8; stroke-linecap: square"/>
     </g>
     <g id="line2d_22"/>
     <g id="text_12">
      <text style="font-size: 11px; font-family: 'DejaVu Sans'; text-anchor: end; fill: #5c6b7d" x="76.68" y="178.259141" transform="rotate(-0 76.68 178.259141)">55</text>
     </g>
    </g>
    <g id="ytick_7">
     <g id="line2d_23">
      <path d="M 85.68 119.68 
L 972.72 119.68 
" clip-path="url(#p9adb69b1a4)" style="fill: none; stroke: #dce3ec; stroke-width: 0.8; stroke-linecap: square"/>
     </g>
     <g id="line2d_24"/>
     <g id="text_13">
      <text style="font-size: 11px; font-family: 'DejaVu Sans'; text-anchor: end; fill: #5c6b7d" x="76.68" y="123.859141" transform="rotate(-0 76.68 123.859141)">60</text>
     </g>
    </g>
    <g id="text_14">
     <text style="font-size: 12px; font-family: 'DejaVu Sans'; text-anchor: middle; fill: #182438" x="42.853125" y="293.76" transform="rotate(-90 42.853125 293.76)">LoCoMo F1 (%)   |   Higher is better</text>
    </g>
   </g>
   <g id="line2d_25">
    <path d="M 831.453875 333.731073 
L 655.065798 168.337389 
" clip-path="url(#p9adb69b1a4)" style="fill: none; stroke: #157d71; stroke-width: 1.8; stroke-linecap: square"/>
   </g>
   <g id="line2d_26">
    <path d="M 655.065798 168.337389 
L 188.955583 152.790961 
" clip-path="url(#p9adb69b1a4)" style="fill: none; stroke-dasharray: 7.2,5.4; stroke-dashoffset: 0; stroke: #157d71; stroke-width: 1.8"/>
   </g>
   <g id="line2d_27">
    <path d="M 110.51712 456.3072 
L 162.85248 456.3072 
" clip-path="url(#p9adb69b1a4)" style="fill: none; stroke: #157d71; stroke-width: 1.8; stroke-linecap: square"/>
   </g>
   <g id="patch_3">
    <path d="M 85.68 489.6 
L 85.68 97.92 
" style="fill: none; stroke: #dce3ec; stroke-width: 0.8; stroke-linejoin: miter; stroke-linecap: square"/>
   </g>
   <g id="patch_4">
    <path d="M 85.68 489.6 
L 972.72 489.6 
" style="fill: none; stroke: #dce3ec; stroke-width: 0.8; stroke-linejoin: miter; stroke-linecap: square"/>
   </g>
   <g id="PathCollection_1">
    <path d="M 831.453875 341.280908 
C 833.456115 341.280908 835.376617 340.485409 836.792415 339.069612 
C 838.208212 337.653815 839.00371 335.733313 839.00371 333.731073 
C 839.00371 331.728834 838.208212 329.808331 836.792415 328.392534 
C 835.376617 326.976737 833.456115 326.181239 831.453875 326.181239 
C 829.451636 326.181239 827.531133 326.976737 826.115336 328.392534 
C 824.699539 329.808331 823.904041 331.728834 823.904041 333.731073 
C 823.904041 335.733313 824.699539 337.653815 826.115336 339.069612 
C 827.531133 340.485409 829.451636 341.280908 831.453875 341.280908 
L 831.453875 341.280908 
z
" clip-path="url(#p9adb69b1a4)" style="fill: none; stroke: #157d71; stroke-opacity: 0.6; stroke-width: 0.9"/>
   </g>
   <g id="PathCollection_2">
    <path d="M 188.955583 160.340796 
C 190.957822 160.340796 192.878325 159.545297 194.294122 158.1295 
C 195.709919 156.713703 196.505417 154.793201 196.505417 152.790961 
C 196.505417 150.788722 195.709919 148.868219 194.294122 147.452422 
C 192.878325 146.036625 190.957822 145.241127 188.955583 145.241127 
C 186.953343 145.241127 185.032841 146.036625 183.617044 147.452422 
C 182.201246 148.868219 181.405748 150.788722 181.405748 152.790961 
C 181.405748 154.793201 182.201246 156.713703 183.617044 158.1295 
C 185.032841 159.545297 186.953343 160.340796 188.955583 160.340796 
L 188.955583 160.340796 
z
" clip-path="url(#p9adb69b1a4)" style="fill: none; stroke: #157d71; stroke-opacity: 0.6; stroke-width: 0.9"/>
   </g>
   <g id="PathCollection_3">
    <path d="M 655.065798 178.337389 
C 657.717829 178.337389 660.261596 177.283726 662.136865 175.408457 
C 664.012134 173.533188 665.065798 170.98942 665.065798 168.337389 
C 665.065798 165.685358 664.012134 163.14159 662.136865 161.266321 
C 660.261596 159.391052 657.717829 158.337389 655.065798 158.337389 
C 652.413767 158.337389 649.869999 159.391052 647.99473 161.266321 
C 646.119461 163.14159 645.065798 165.685358 645.065798 168.337389 
C 645.065798 170.98942 646.119461 173.533188 647.99473 175.408457 
C 649.869999 177.283726 652.413767 178.337389 655.065798 178.337389 
L 655.065798 178.337389 
z
" clip-path="url(#p9adb69b1a4)" style="fill: none; stroke: #157d71; stroke-opacity: 0.6; stroke-width: 0.9"/>
   </g>
   <g id="text_15">
    <text style="font-size: 10px; font-family: 'DejaVu Sans'; text-anchor: start; fill: #5c6b7d" x="173.49696" y="459.066575" transform="rotate(-0 173.49696 459.066575)">Pareto frontier at accounted token totals</text>
   </g>
   <g id="patch_5">
    <path d="M 300.693442 333.655845 
Q 281.938655 333.655845 264.413705 333.655845 
" style="fill: none; stroke: #25779e; stroke-width: 1.1; stroke-linecap: round"/>
    <path d="M 268.413705 335.655845 
L 264.413705 333.655845 
L 268.413705 331.655845 
" style="fill: none; stroke: #25779e; stroke-width: 1.1; stroke-linecap: round"/>
   </g>
   <g id="patch_6">
    <path d="M 180.45401 152.790961 
Q 161.699222 152.790961 144.174273 152.790961 
" style="fill: none; stroke: #25779e; stroke-width: 1.1; stroke-linecap: round"/>
    <path d="M 148.174273 154.790961 
L 144.174273 152.790961 
L 148.174273 150.790961 
" style="fill: none; stroke: #25779e; stroke-width: 1.1; stroke-linecap: round"/>
   </g>
   <g id="PathCollection_4">
    <defs>
     <path id="m411c05fb18" d="M -4.123106 4.123106 
L 4.123106 4.123106 
L 4.123106 -4.123106 
L -4.123106 -4.123106 
z
" style="stroke: #ffffff; stroke-width: 0.8"/>
    </defs>
    <g clip-path="url(#p9adb69b1a4)">
     <use xlink:href="#m411c05fb18" x="219.680503" y="172.242372" style="fill: #b77824; stroke: #ffffff; stroke-width: 0.8"/>
    </g>
   </g>
   <g id="PathCollection_5">
    <defs>
     <path id="m3b5d9458db" d="M 0 4.123106 
C 1.09346 4.123106 2.142283 3.688669 2.915476 2.915476 
C 3.688669 2.142283 4.123106 1.09346 4.123106 0 
C 4.123106 -1.09346 3.688669 -2.142283 2.915476 -2.915476 
C 2.142283 -3.688669 1.09346 -4.123106 0 -4.123106 
C -1.09346 -4.123106 -2.142283 -3.688669 -2.915476 -2.915476 
C -3.688669 -2.142283 -4.123106 -1.09346 -4.123106 0 
C -4.123106 1.09346 -3.688669 2.142283 -2.915476 2.915476 
C -2.142283 3.688669 -1.09346 4.123106 0 4.123106 
z
" style="stroke: #ffffff; stroke-width: 0.8"/>
    </defs>
    <g clip-path="url(#p9adb69b1a4)">
     <use xlink:href="#m3b5d9458db" x="399.145172" y="375.377859" style="fill: #25779e; stroke: #ffffff; stroke-width: 0.8"/>
    </g>
   </g>
   <g id="PathCollection_6">
    <g clip-path="url(#p9adb69b1a4)">
     <use xlink:href="#m3b5d9458db" x="399.963936" y="371.596604" style="fill: #25779e; stroke: #ffffff; stroke-width: 0.8"/>
    </g>
   </g>
   <g id="PathCollection_7">
    <g clip-path="url(#p9adb69b1a4)">
     <use xlink:href="#m3b5d9458db" x="413.258308" y="446.815877" style="fill: #25779e; stroke: #ffffff; stroke-width: 0.8"/>
    </g>
   </g>
   <g id="PathCollection_8">
    <g clip-path="url(#p9adb69b1a4)">
     <use xlink:href="#m3b5d9458db" x="484.70601" y="356.982574" style="fill: #25779e; stroke: #ffffff; stroke-width: 0.8"/>
    </g>
   </g>
   <g id="PathCollection_9">
    <g clip-path="url(#p9adb69b1a4)">
     <use xlink:href="#m3b5d9458db" x="831.453875" y="333.731073" style="fill: #25779e; stroke: #ffffff; stroke-width: 0.8"/>
    </g>
   </g>
   <g id="PathCollection_10">
    <g clip-path="url(#p9adb69b1a4)">
     <use xlink:href="#m3b5d9458db" x="309.195015" y="333.655845" style="fill: #25779e; stroke: #ffffff; stroke-width: 0.8"/>
    </g>
   </g>
   <g id="PathCollection_11">
    <g clip-path="url(#p9adb69b1a4)">
     <use xlink:href="#m3b5d9458db" x="188.955583" y="152.790961" style="fill: #25779e; stroke: #ffffff; stroke-width: 0.8"/>
    </g>
   </g>
   <g id="PathCollection_12">
    <defs>
     <path id="m99e5b779e0" d="M 0 -7.745967 
L -1.739078 -2.393635 
L -7.366852 -2.393635 
L -2.813887 0.914287 
L -4.552965 6.266619 
L -0 2.958696 
L 4.552965 6.266619 
L 2.813887 0.914287 
L 7.366852 -2.393635 
L 1.739078 -2.393635 
z
" style="stroke: #ffffff; stroke-width: 0.8"/>
    </defs>
    <g clip-path="url(#p9adb69b1a4)">
     <use xlink:href="#m99e5b779e0" x="655.065798" y="168.337389" style="fill: #6941c6; stroke: #ffffff; stroke-width: 0.8"/>
    </g>
   </g>
   <g id="patch_7">
    <path d="M 219.680503 186.765739 
Q 219.680503 180.505728 219.680503 174.245717 
" style="fill: none; opacity: 0.65; stroke: #5c6b7d; stroke-width: 0.6; stroke-linecap: round"/>
   </g>
   <g id="text_16">
    <text style="font-size: 11px; font-family: 'DejaVu Sans'; fill: #182438" transform="translate(159.557768 199.118887)">Full-context reference</text>
    <text style="font-size: 11px; font-family: 'DejaVu Sans'; fill: #182438" transform="translate(172.956284 211.436481)">55.17  ·  54.11 M</text>
   </g>
   <g id="patch_8">
    <path d="M 434.188952 382.7362 
Q 417.64454 379.262277 401.100129 375.788353 
" style="fill: none; opacity: 0.65; stroke: #5c6b7d; stroke-width: 0.6; stroke-linecap: round"/>
   </g>
   <g id="text_17">
    <text style="font-size: 11px; font-family: 'DejaVu Sans'; fill: #182438" transform="translate(438.145172 390.254375)">Mem0</text>
    <text style="font-size: 11px; font-family: 'DejaVu Sans'; fill: #182438" transform="translate(438.145172 402.571969)">36.50  ·  27.37 M</text>
   </g>
   <g id="patch_9">
    <path d="M 373.909777 365.144547 
Q 385.965232 368.129962 398.020688 371.115378 
" style="fill: none; opacity: 0.65; stroke: #5c6b7d; stroke-width: 0.6; stroke-linecap: round"/>
   </g>
   <g id="text_18">
    <text style="font-size: 11px; font-family: 'DejaVu Sans'; fill: #182438" transform="translate(332.785655 349.47312)">A-MEM</text>
    <text style="font-size: 11px; font-family: 'DejaVu Sans'; fill: #182438" transform="translate(276.515499 361.790714)">36.85  ·  27.29 M</text>
   </g>
   <g id="patch_10">
    <path d="M 434.280944 450.333122 
Q 424.756346 448.739585 415.231747 447.146048 
" style="fill: none; opacity: 0.65; stroke: #5c6b7d; stroke-width: 0.6; stroke-linecap: round"/>
   </g>
   <g id="text_19">
    <text style="font-size: 11px; font-family: 'DejaVu Sans'; fill: #182438" transform="translate(438.258308 455.692393)">LangMem</text>
    <text style="font-size: 11px; font-family: 'DejaVu Sans'; fill: #182438" transform="translate(438.258308 468.009987)">29.93  ·  25.94 M</text>
   </g>
   <g id="patch_11">
    <path d="M 501.745616 353.711737 
Q 494.209667 355.1583 486.673718 356.604862 
" style="fill: none; opacity: 0.65; stroke: #5c6b7d; stroke-width: 0.6; stroke-linecap: round"/>
   </g>
   <g id="text_20">
    <text style="font-size: 11px; font-family: 'DejaVu Sans'; fill: #182438" transform="translate(505.70601 340.85909)">SimpleMem</text>
    <text style="font-size: 11px; font-family: 'DejaVu Sans'; fill: #182438" transform="translate(505.70601 353.176683)">38.19  ·  19.78 M</text>
   </g>
   <g id="patch_12">
    <path d="M 800.777304 344.541783 
Q 815.173798 339.468324 829.570292 334.394865 
" style="fill: none; opacity: 0.65; stroke: #5c6b7d; stroke-width: 0.6; stroke-linecap: round"/>
   </g>
   <g id="text_21">
    <text style="font-weight: 700; font-size: 11px; font-family: 'DejaVu Sans'; fill: #182438" transform="translate(701.573407 355.56462)">LightMem (official)</text>
    <text style="font-weight: 700; font-size: 11px; font-family: 'DejaVu Sans'; fill: #182438" transform="translate(723.250282 367.968151)">40.33  ·  5.30 M</text>
   </g>
   <g id="patch_13">
    <path d="M 297.81418 330.648461 
Q 302.53906 331.89701 307.263941 333.145559 
" style="fill: none; opacity: 0.65; stroke: #5c6b7d; stroke-width: 0.6; stroke-linecap: round"/>
   </g>
   <g id="text_22">
    <text style="font-size: 11px; font-family: 'DejaVu Sans'; fill: #182438" transform="translate(249.36939 313.532361)">HiGMem</text>
    <text style="font-size: 11px; font-family: 'DejaVu Sans'; fill: #182438" transform="translate(193.528921 325.849955)">40.33  ·  ≥38.51 M</text>
   </g>
   <g id="patch_14">
    <path d="M 211.665132 144.92772 
Q 201.254278 148.532505 190.843425 152.137291 
" style="fill: none; opacity: 0.65; stroke: #5c6b7d; stroke-width: 0.6; stroke-linecap: round"/>
   </g>
   <g id="text_23">
    <text style="font-weight: 700; font-size: 11px; font-family: 'DejaVu Sans'; fill: #182438" transform="translate(195.955583 127.667477)">E-Mem</text>
    <text style="font-weight: 700; font-size: 11px; font-family: 'DejaVu Sans'; fill: #182438" transform="translate(195.955583 139.98507)">56.96  ·  ≥60.80 M</text>
   </g>
   <g id="patch_15">
    <path d="M 671.489111 162.534832 
Q 664.221715 165.102492 656.954318 167.670152 
" style="fill: none; opacity: 0.65; stroke: #5c6b7d; stroke-width: 0.6; stroke-linecap: round"/>
   </g>
   <g id="text_24">
    <g id="patch_16">
     <path d="M 671.065798 161.319155 
L 774.922985 161.319155 
Q 780.422985 161.319155 780.422985 155.819155 
L 780.422985 132.855623 
Q 780.422985 127.355623 774.922985 127.355623 
L 671.065798 127.355623 
Q 665.565798 127.355623 665.565798 132.855623 
L 665.565798 155.819155 
Q 665.565798 161.319155 671.065798 161.319155 
z
" style="fill: #ffffff; stroke: #6941c6; stroke-width: 1.1; stroke-linejoin: miter"/>
    </g>
    <text style="font-weight: 700; font-size: 11px; font-family: 'DejaVu Sans'; fill: #6941c6" transform="translate(671.065798 141.213905)">Our method†</text>
    <text style="font-weight: 700; font-size: 11px; font-family: 'DejaVu Sans'; fill: #6941c6" transform="translate(671.065798 153.531498)">55.53  ·  10.36 M</text>
   </g>
  </g>
  <g id="text_25">
   <text style="font-weight: 700; font-size: 23px; font-family: 'DejaVu Sans'; text-anchor: start; fill: #182438" x="85.68" y="33.048" transform="rotate(-0 85.68 33.048)">LoCoMo: quality vs. token usage</text>
  </g>
  <g id="text_26">
   <text style="font-size: 12px; font-family: 'DejaVu Sans'; text-anchor: start; fill: #5c6b7d" x="85.68" y="59.364" transform="rotate(-0 85.68 59.364)">Main-table comparison  ·  9 points  ·  1,540 identical questions  ·  Qwen3.5-9B</text>
  </g>
  <g id="text_27">
   <text style="font-size: 10px; font-family: 'DejaVu Sans'; text-anchor: start; fill: #5c6b7d" x="85.68" y="556.308" transform="rotate(-0 85.68 556.308)">† Reconstructed preparation + full logical reader tokens (including reused answers). Embedding tokens excluded.</text>
  </g>
  <g id="text_28">
   <text style="font-size: 10px; font-family: 'DejaVu Sans'; text-anchor: start; fill: #5c6b7d" x="85.68" y="573.444" transform="rotate(-0 85.68 573.444)">≥ Token lower bound; arrow points toward higher cost. Dashed frontier uses a lower-bound coordinate.</text>
  </g>
  <g id="text_29">
   <text style="font-size: 10px; font-family: 'DejaVu Sans'; text-anchor: start; fill: #5c6b7d" x="85.68" y="590.58" transform="rotate(-0 85.68 590.58)">Native pipeline accounting differs; the line joins observed configurations and does not imply interpolated performance.</text>
  </g>
 </g>
 <defs>
  <clipPath id="p9adb69b1a4">
   <rect x="85.68" y="97.92" width="887.04" height="391.68"/>
  </clipPath>
 </defs>
</svg>
